<svg version="1.2" xmlns="http://www.w3.org/2000/svg" viewBox="0 0 1518 578">
	<title>Amundi_logo-svg</title>
	<defs>
		<clipPath clipPathUnits="userSpaceOnUse" id="cp1">
			<path d="m-782.7-506.75h6510v9207h-6510z"/>
		</clipPath>
		<clipPath clipPathUnits="userSpaceOnUse" id="cp2">
			<path d="m-782.7-506.75h6510v9207h-6510z"/>
		</clipPath>
	</defs>
	<style>
		.s0 { fill: #ffffff } 
	</style>
	<g id="layer1">
		<g id="g3105">
			<g id="Clip-Path: g3107" clip-path="url(#cp1)">
				<g id="g3107">
					<g id="g3117">
						<path id="path3103" fill-rule="evenodd" class="s0" d="m315.9 319.8h-74.1l-25.7-61.2h-116.3l-25.6 61.2h-74.1l131.1-314.5h53.6zm-120.3-120.9l-37.6-98.1-37.6 98.1zm197.4-90.5c13.8-13.5 30.7-18.8 34.2-20.1 31.4-11 69.6 3.8 85.2 19.7 0 0 32.7-23.1 76-23.8 7.3 0.2 42.4 0.8 65.1 21.4 22.6 20.4 26.2 52.1 26.2 77.3v136.9h-69.9v-134.2c0-9.3-1.3-29.7-14.2-38.7-5.9-4.1-24.2-7.7-40.2-0.5-7 3.1-14.2 6.2-20.6 10.5 1.3 8.3 2.2 16.6 2.2 25v137.9h-69.8v-134.2c0-6.1-0.4-27.7-11.3-36.9-14.1-11.7-33.6-4.9-41.4-1.1-6.8 3.3-13.1 7.8-18.6 12.9v159.3h-70.4v-230.2h64.7z"/>
					</g>
				</g>
			</g>
		</g>
		<path id="path3115" fill-rule="evenodd" class="s0" d="m1170.2 184.6v135.2h-70.3v-130.6c0-19.5-5.7-35.7-18-42.6-15-8.4-32.5-3.2-39.8 1-6.7 3.8-13.3 8.3-19.1 13.4v158.8h-70.3v-230.2h64.1l2.9 18.8c13.7-13.5 30.7-18.9 34.1-20.1 19.7-6.7 61.1-7.8 87.3 15.2 10.8 9.5 29.1 31.5 29.1 81.1zm-248.4 135.2h-64.4l-3-19.7c-5.8 6-13.3 10.8-20.7 14.5-10.7 5.5-22.5 8.8-34.5 9.6-26 1.8-54-5.6-71.8-25.5-17.6-19.7-22.2-47.5-22.2-73v-136.1h70.4v130.1c0 11.3 2.3 37 18.2 43.2 14.8 5.6 32.3 1.1 39.4-2.4 6.4-3.2 12.6-7.2 18.3-11.5v-159.4h70.3zm484.1-314.5v314.5h-64l-2.2-14c-13.9 12.5-33.6 18-46.8 18.8-15 1-30.7-2.5-44.3-8.8-20.5-9.4-61.9-39.4-61.5-115 0.2-31.1 11.9-62.8 34.1-85.1 10.2-10.2 34.9-31.6 80-31.6 11.8 0 23.5 1.6 34.8 4.6v-83.4zm-69.9 142.1c-9.4-3.3-18.2-4.8-26.5-4.8-30.4-0.2-44 20.3-49.1 33.5-5.6 14.4-5.8 28.6-3.4 43.6 6.5 41.5 37.6 52.7 61.9 42.7 6.4-2.6 13-6.4 17.1-12zm140.7-72.3c-22.6 0-40.8-16.7-40.8-37.5 0-20.8 18.2-37.5 40.8-37.5 22.6 0 40.8 16.7 40.8 37.5 0 20.8-18.2 37.5-40.8 37.5zm-35 14.4h69.9v230.3h-69.9z"/>
		<path id="path3135" class="s0" d="m2.8 379h1508.8v59.3h-1508.8z"/>
		<g id="g3185">
			<g id="Clip-Path: g3187" clip-path="url(#cp2)">
				<g id="g3187">
					<g id="g3201">
						<path id="path3139" fill-rule="evenodd" class="s0" d="m319 575.4l30.2-77.9h19.5l30.4 77.9h-22.4l-5-13.4h-26.1l-5.2 13.4zm31.2-29.3h16.8l-8.4-23.7zm197 29.3v-77.8h55.4v17.9h-34.5v12.8h28.1v16.4h-28.1v12.8h36.9v17.9zm85.7 0v-59.9h-21.8v-17.9h64.4v17.9h-21.6v59.9zm76.2 0v-77.8h21.5l19.3 46.3 18.3-46.3h21.6v77.8h-20.2v-38l-15.5 38.5h-8.5l-16.3-38.7v38.2zm90.2 0l30.2-77.9h19.5l30.4 77.9h-22.3l-5.1-13.4h-26.1l-5.1 13.4zm31.1-29.3h16.8l-8.4-23.6zm58.5 29.2v-77.7h21.1l25.3 41.1v-41.1h20.5v77.7h-19l-27.5-43.9v43.9zm76.5 0l30.2-77.8h19.5l30.4 77.8h-22.4l-5-13.4h-26.1l-5.1 13.4zm31.1-29.2h16.8l-8.4-23.7zm133.6 29.3v-77.8h55.4v17.8h-34.6v12.9h28.1v16.4h-28.1v12.7h37v18zm70.9 0v-77.8h21.4l19.4 46.3 18.3-46.3h21.6v77.8h-20.2v-38l-15.5 38.4h-8.5l-16.3-38.7v38.3zm98 0v-77.8h55.4v17.8h-34.5v12.9h28.1v16.4h-28.1v12.7h36.9v18zm70.9 0v-77.8h21.1l25.3 41.2v-41.2h20.5v77.8h-19l-27.5-44v44zm99.1 0v-60h-21.8v-17.8h64.4v17.8h-21.6v60zm-1050.2-23.2q2.6 3.2 7 5.7c3.1 1.8 6.8 2.6 10.4 2.5 3 0 7.2-0.6 8.8-3.5 1.7-3.1 0.2-6.6-2.5-8.3-2.9-1.8-6.1-2.8-9.3-3.8-7.1-2.4-14.8-4.3-20.6-9.3-5.9-4.9-7.9-12.7-6.6-20.1 1.9-11 12-17.2 22.4-18.8 10.9-1.7 23.8 0.1 32.1 8q2.5 2.5 4.2 4.9l-14 10.8q-1-1.4-2.4-2.9c-2.4-2.6-5.8-4.5-9.3-5.2-3.2-0.7-7.3-0.7-10.2 0.9-2.8 1.6-4 5.2-1.9 7.9 2 2.5 5.7 3.6 8.7 4.7 7.1 2.4 14.9 4.1 21.1 8.5 6.1 4.4 9.1 10.9 9.2 18.3 0.4 24.3-31.6 29.3-49.1 20.6q-7.9-3.9-12.3-9.9zm68.1 0q2.5 3.3 6.9 5.8c3.2 1.8 6.8 2.6 10.5 2.5 2.9-0.1 7.2-0.7 8.7-3.5 1.7-3.1 0.2-6.6-2.5-8.3-2.8-1.8-6.1-2.8-9.2-3.8-7.1-2.4-14.9-4.4-20.7-9.3-5.9-5-7.8-12.7-6.5-20.1 1.9-11 12-17.2 22.3-18.8 10.9-1.7 23.8 0.1 32.1 8q2.6 2.4 4.2 4.8l-14 10.9q-0.9-1.4-2.3-2.9c-2.5-2.7-5.9-4.5-9.4-5.2-3.2-0.7-7.3-0.7-10.2 0.9-2.8 1.5-4 5.2-1.9 7.8 2.1 2.6 5.8 3.7 8.7 4.7 7.2 2.5 14.9 4.2 21.2 8.6 6.1 4.3 9.1 10.8 9.2 18.2 0.3 24.4-31.7 29.3-49.2 20.6q-7.8-3.9-12.3-9.8zm597.6-3.9v-15.4h30.6v39.5c-10.4 3.9-21.1 4.4-25.2 4.6-13.8 0.9-26-2.3-34.3-13.2-5.1-6.8-7.3-15.3-7.8-23.7-0.4-8.7 0.7-17.7 4.7-25.6 5.1-10.2 14.6-16.7 25.9-18.1 11.2-1.4 24 0.9 31.4 10.1q2.7 3.3 4.6 7.4l-17.4 8.9q-2.1-4.4-5-6.9c-4.7-4-12.3-2.9-16.6 1.2-4.3 4.2-5.7 10.2-6.1 16-1.3 19.8 8.5 24.7 11.7 26 3.7 1.5 9.6 1.3 14.6 0.5v-11.3z"/>
					</g>
				</g>
			</g>
		</g>
	</g>
</svg>