<?xml version="1.0" encoding="utf-8"?>
<svg viewBox="140.029 0 158.449 124.981" xmlns="http://www.w3.org/2000/svg">
  <defs>
    <clipPath id="clip0_433_358">
      <rect width="47" height="37" fill="white"/>
    </clipPath>
  </defs>
  <g clip-path="url(#clip0_433_358)" transform="matrix(3.31225, 0, 0, 3.31225, 143.71402, 0.609526)" style="">
    <path d="M16.6667 16.2453C18.3339 14.3839 19.8276 12.6086 21.4364 10.9465C23.4704 8.84655 25.6494 6.89457 28.4616 5.90123C29.3596 5.5842 30.3384 5.38342 31.2872 5.3502C32.7614 5.29737 33.616 6.20466 33.7163 7.6962C33.8509 9.6829 33.1296 11.4673 32.3663 13.2276C31.5985 14.9984 30.7619 16.7405 29.9029 18.6125C31.2648 17.1949 32.498 15.8332 33.8135 14.5576C35.7427 12.6871 37.8005 10.9782 40.3523 10.0105C41.6349 9.52438 42.9534 9.26774 44.3124 9.64516C45.5186 9.9803 46.2699 10.7955 46.1083 12.0229C45.9212 13.4314 45.5605 14.858 45.0173 16.1684C44.2974 17.9044 43.3261 19.5349 42.4057 21.3208C42.901 21.3691 43.3216 21.4038 43.7391 21.4536C46.478 21.7767 47.7681 23.9597 46.5274 26.4189C45.9556 27.5541 45.0996 28.5762 44.233 29.5197C42.1991 31.7389 39.9811 33.7588 37.362 35.2775C36.0974 36.0112 34.7654 36.5184 33.2718 36.3901C31.5656 36.2437 30.5434 35.4149 30.4327 33.7014C30.3578 32.533 30.5629 31.283 30.9295 30.1673C31.4578 28.5611 32.2481 27.0408 32.9724 25.3772C30.524 26.0943 28.1982 26.757 25.8904 27.4771C25.615 27.5632 25.3726 27.9255 25.2199 28.2169C24.4402 29.7054 23.7876 31.2694 22.9181 32.702C21.3182 35.3379 18.9925 36.8943 15.8481 36.9155C14.1928 36.9275 13.639 36.1138 14.2362 34.5831C14.781 33.1866 15.4455 31.837 16.1115 30.3455C15.667 30.4693 15.3048 30.6036 14.9306 30.667C13.4071 30.9282 11.885 31.2256 10.3495 31.3841C9.7508 31.446 9.41107 31.5924 9.12671 32.1359C7.8905 34.491 6.07659 36.1652 3.43355 36.7539C2.40836 36.9819 1.26793 37.3004 0.446286 36.3856C-0.369374 35.4768 0.109546 34.3777 0.494178 33.4478C1.26195 31.5985 2.17638 29.8111 2.99653 27.9829C3.10429 27.7428 3.12973 27.3488 3.00701 27.136C-0.0550826 21.8627 0.354992 16.511 2.71218 11.1578C4.08458 8.04191 6.08108 5.33813 8.61935 3.0812C10.7176 1.21376 13.1347 -0.00301369 16.0052 5.60621e-06C18.7006 0.00302491 20.2511 1.59269 20.2885 4.31458C20.3334 7.59505 19.2229 10.5721 17.9044 13.4933C17.5183 14.3477 17.1351 15.2037 16.6667 16.2438V16.2453ZM4.29112 25.1191C4.44826 24.9288 4.5186 24.8715 4.55452 24.7975C6.97456 19.8413 9.41556 14.8942 11.7877 9.91538C12.2876 8.86618 12.6932 7.71431 12.8473 6.57C13.0673 4.93505 11.8401 4.13946 10.3689 4.90184C9.65502 5.27321 8.95909 5.79102 8.42928 6.39639C5.1846 10.1056 3.30933 14.4217 3.06538 19.3915C2.9696 21.354 3.2794 23.2652 4.28962 25.1221L4.29112 25.1191ZM10.8703 29.5922C12.7755 29.183 14.6852 28.7966 16.5784 28.3422C16.9151 28.2622 17.3043 27.9632 17.4659 27.6568C19.2619 24.2721 21.0593 20.886 22.761 17.4531C23.3147 16.3359 23.6874 15.0995 23.9583 13.8752C24.1394 13.0524 23.5826 12.7113 22.8283 13.1083C22.2641 13.4042 21.6729 13.7559 21.2703 14.2345C19.0927 16.8205 16.9196 19.4126 14.8468 22.0847C13.1541 24.2661 11.6365 26.5804 10.8688 29.5922H10.8703ZM26.6627 25.5901C28.9944 24.9168 31.1031 24.3295 33.1939 23.6834C33.5022 23.5883 33.8315 23.2577 33.9692 22.9527C34.4541 21.8809 34.8821 20.7803 35.2862 19.6722C35.5182 19.0382 35.7187 18.3815 35.828 17.7173C35.9627 16.9036 35.5481 16.6122 34.7938 16.9549C34.4257 17.1224 34.0665 17.3444 33.7567 17.607C31.0717 19.8761 28.8627 22.5783 26.6642 25.5901H26.6627ZM44.9035 25.4935C44.8616 25.0874 44.8811 24.8971 44.8197 24.7386C44.3617 23.5445 43.2752 23.4615 42.2425 23.229C41.37 23.0327 41.2203 23.6668 40.9689 24.2133C40.0844 26.1335 39.1789 28.0433 38.3483 29.9877C38.2181 30.2926 38.3259 30.8376 38.5354 31.0973C38.6551 31.2452 39.3076 31.1697 39.5426 30.9765C41.0737 29.7175 42.5957 28.4403 44.0325 27.0741C44.489 26.6408 44.6775 25.9192 44.902 25.4935H44.9035Z" fill="#061849"/>
  </g>
</svg>