<svg viewBox="0 0 154 58" fill="none" xmlns="http://www.w3.org/2000/svg">
<path d="M80.1526 56.002L80.1516 56.002L80.1514 56.002L80.1513 56.0019L80.1409 56.0017L80.1303 56.0019L19.7785 57.0263L104.55 36.2086C96.5873 47.2743 90.8684 51.9009 86.5815 54.473L86.5793 54.4744C85.2625 55.2739 83.6639 55.6609 82.3687 55.8442C81.7256 55.9352 81.1674 55.9747 80.7709 55.9913C80.5729 55.9996 80.4158 56.0022 80.3092 56.0028C80.2559 56.0031 80.2154 56.0028 80.1887 56.0025L80.1592 56.0021L80.1526 56.002ZM33.1131 2.93318L33.105 2.93017L33.0969 2.92745C32.4999 2.72844 31.8262 2.46497 31.4176 2.07298C31.2055 1.77841 31.1699 1.53883 31.2238 1.32304L31.2239 1.32306L31.226 1.3142C31.3195 0.908929 31.5971 0.706853 32.0058 0.597198C32.3841 0.495708 32.7893 0.498733 33.1071 0.501107C33.1529 0.501449 33.1969 0.501778 33.2388 0.501778H111.839C114.694 0.501778 116.78 0.552764 118.359 0.807884C119.927 1.06111 120.937 1.50706 121.685 2.25534L121.691 2.26104L121.697 2.26656C123.042 3.52772 123.064 5.53099 121.695 8.17163L121.691 8.17847L121.688 8.18542C121.095 9.42127 120.251 10.9856 119.54 12.2579C119.185 12.893 118.865 13.4527 118.627 13.859C118.52 14.0428 118.43 14.1939 118.363 14.306L60.1747 15.1996C60.1293 15.172 60.0739 15.1383 60.0133 15.1009C59.8517 15.0015 59.6583 14.8805 59.5163 14.7858C52.3204 9.9586 40.052 5.47289 34.6067 3.48191C34.0266 3.26982 33.524 3.08604 33.1131 2.93318ZM62.2388 20.0018H62.258L62.2771 20.0003L62.2794 20.0001L62.2857 19.9998L62.3073 19.9987C62.3254 19.9979 62.349 19.9969 62.3785 19.9959C62.4375 19.9938 62.5168 19.9915 62.6165 19.9888C62.8156 19.9834 63.0925 19.977 63.4422 19.9695C64.1416 19.9545 65.1299 19.9354 66.3662 19.9128C68.8389 19.8677 72.3018 19.8087 76.4251 19.7408C84.6718 19.6048 95.5591 19.433 106.447 19.2642C128.226 18.9267 149.994 18.6018 150.639 18.6018C151.547 18.6018 152.259 18.7469 152.724 18.9845C153.173 19.2144 153.339 19.4938 153.339 19.8018C153.339 20.2121 153.141 20.5775 152.732 20.8941C152.315 21.2175 151.698 21.4693 150.948 21.6101C131.135 25.2125 104.225 31.1149 76.8183 37.9165L76.8158 37.9172C66.4456 40.549 55.9496 43.1814 46.1296 45.6443C30.9585 49.4492 17.4011 52.8494 8.41466 55.2174C7.88518 55.3498 7.35805 55.4729 6.84137 55.5937C5.83494 55.8288 4.86816 56.0547 4.00085 56.3211C2.51707 56.7161 1.65715 56.79 1.15683 56.7083C0.918606 56.6694 0.786043 56.5988 0.705242 56.5311C0.629808 56.4679 0.569167 56.3818 0.517729 56.254C0.425262 55.8156 0.739441 55.3105 1.46238 54.949L1.47036 54.945L1.4782 54.9407C1.98897 54.6621 3.04972 54.2503 4.24912 53.8085C4.65632 53.6584 5.07709 53.5058 5.49078 53.3557C6.26986 53.073 7.02383 52.7995 7.61478 52.5698C15.3209 49.7674 30.2341 44.0625 42.0529 38.4536C47.6689 35.7961 52.5884 32.9493 56.1116 29.9711C59.6185 27.0066 61.8388 23.829 61.8388 20.5018C61.8388 20.3177 61.8508 20.1973 61.8686 20.1183C61.879 20.0727 61.8891 20.0505 61.8939 20.0419C61.9112 20.0331 61.9905 20.0018 62.2388 20.0018Z" stroke="#0F3F93"/>
</svg>
