<svg width="84" height="51" viewBox="0 0 84 51" fill="none" xmlns="http://www.w3.org/2000/svg">
<path d="M23.4908 18.4507C23.397 21.3837 24.8709 22.6825 24.9074 23.5074C24.89 23.6753 24.8325 23.8366 24.7397 23.9779C24.6468 24.1191 24.5212 24.2362 24.3736 24.3194L22.7069 25.4796C22.4912 25.63 22.237 25.7162 21.9739 25.7283C21.9179 25.7257 20.9075 25.9652 19.3072 22.4119C18.3309 23.6239 17.0887 24.5977 15.6757 25.2587C14.2627 25.9197 12.7163 26.2504 11.155 26.2255C9.03527 26.3408 3.29057 25.029 3.58614 18.9466C3.37911 13.9896 8.02096 10.9102 12.8217 11.1705C13.7461 11.1731 15.6341 11.2184 18.9401 11.9824V9.95972C19.2903 6.5333 17.026 3.87478 13.1055 4.27363C12.793 4.27492 10.5795 4.20888 7.13686 5.58281C6.17855 6.0205 6.05615 5.94799 5.73715 5.94799C4.77232 5.94799 5.16945 3.16645 5.35434 2.81422C6.03272 1.98546 10.0235 0.438002 13.9401 0.460016C16.5589 0.229681 19.1636 1.03348 21.1913 2.69768C22.0156 3.61461 22.6444 4.68817 23.0398 5.85353C23.4353 7.01889 23.5891 8.25187 23.4921 9.478L23.4908 18.4507ZM12.2383 22.645C16.4609 22.5841 18.2487 20.059 18.6562 18.6993C18.9765 17.3979 18.9231 16.5743 18.9231 15.1512C17.664 14.8507 15.8516 14.5231 13.7722 14.5205C11.7995 14.3729 8.19674 15.2496 8.33736 18.698C8.17591 20.8722 9.78526 22.7641 12.2383 22.645ZM34.4932 25.6298C33.4698 25.7231 32.9932 25.0005 32.8422 24.287L26.3579 2.96573C26.2316 2.60574 26.1483 2.23409 26.1079 1.85467C26.084 1.69824 26.1235 1.53877 26.2177 1.4113C26.312 1.28382 26.4532 1.19877 26.6105 1.17482C26.6418 1.16964 26.3332 1.17482 29.5076 1.17482C30.6508 1.06087 31.0232 1.95568 31.1417 2.51768L35.7926 20.7544L40.1103 2.51768C40.1793 2.10071 40.4931 1.08418 41.7769 1.19166H44.0113C44.2938 1.16835 45.4578 1.12691 45.6623 2.53452L50.0138 21.0043L54.8145 2.53452C54.877 2.25222 55.1686 1.06216 56.4655 1.19166H59.0331C59.1438 1.17483 59.8339 1.08677 59.7167 2.30272C59.6607 2.54228 60.1607 0.922311 52.8483 24.3038C52.6986 25.0173 52.2208 25.7399 51.1973 25.6467H48.7638C47.3393 25.7956 47.1349 24.3958 47.1128 24.2546L42.7951 6.49704L38.527 24.2365C38.5061 24.3776 38.3017 25.7775 36.876 25.6285H34.4932V25.6298ZM70.102 26.3589C69.3364 26.3602 65.6854 26.32 62.6333 24.7674C62.3293 24.6394 62.0704 24.4245 61.8893 24.1499C61.7083 23.8753 61.6133 23.5535 61.6164 23.2251V21.8331C61.6164 20.7388 62.4237 20.9396 62.7662 21.0703C64.0734 21.5961 64.9119 21.9949 66.5174 22.3135C71.2894 23.2886 73.3884 22.0157 73.9027 21.7334C75.6149 20.722 75.7503 18.4079 74.5863 17.2075C73.2217 16.0693 72.5707 16.0265 67.6684 14.4881C67.0643 14.3211 61.9784 12.7257 61.9667 7.70782C61.8873 4.0509 65.2284 0.432822 71.0186 0.462605C72.6683 0.46131 77.0641 0.997417 78.2542 2.48531C78.43 2.75595 78.5172 3.07451 78.5042 3.39695V4.70614C78.5042 5.28109 78.2932 5.56857 77.8701 5.56857C76.8662 5.4572 75.085 4.12212 71.4691 4.1765C70.572 4.12989 66.2752 4.29434 66.4679 7.40998C66.4119 9.86519 69.9327 10.7859 70.335 10.8921C75.0824 12.3126 76.6696 12.5483 78.5537 14.7225C80.7854 17.6038 79.5823 20.9771 79.1201 21.9017C76.6357 26.7564 70.2113 26.3615 70.102 26.3589ZM75.3363 39.9377C66.2179 46.6351 52.9812 50.2001 41.6793 50.2001C26.4296 50.3001 11.6938 44.7234 0.368747 34.5662C-0.4815 33.8035 0.268488 32.7585 1.30233 33.3399C13.8652 40.4869 28.089 44.2422 42.5621 44.233C53.3701 44.1754 64.0603 41.9948 74.0186 37.8166C75.5524 37.1691 76.8532 38.8266 75.3363 39.9377ZM79.137 35.6268C77.9703 34.135 71.4183 34.9301 68.4848 35.2785C67.6007 35.3782 67.451 34.6155 68.2517 34.0522C73.4691 30.4043 82.038 31.4493 83.0223 32.6756C84.0054 33.9019 82.7554 42.4408 77.8714 46.5199C77.1214 47.1505 76.4039 46.8177 76.7373 45.9889C77.8362 43.2372 80.3036 37.1199 79.137 35.6268Z" fill="black"/>
</svg>
