<svg width="71" height="51" viewBox="0 0 71 51" fill="none" xmlns="http://www.w3.org/2000/svg">
<path d="M38.521 23.5966H31.2449V16.9978H38.521V23.5966ZM38.521 0.90062H31.2449V7.64388H38.521V0.90062ZM47.1291 16.9867H39.8529V23.5855H47.1291V16.9867ZM29.9239 8.97698H22.6478V15.6536H29.9239V8.97698ZM38.521 8.97698H31.2449V15.6536H38.521V8.97698ZM68.9905 20.0861C67.4054 19.0085 63.7508 18.6197 60.9438 19.153C60.5806 16.4868 59.1055 14.165 56.4196 12.0764L54.8785 11.0433L53.8548 12.5986C51.8294 15.6869 51.279 20.7749 53.4475 24.1299C52.4899 24.652 50.6075 25.363 48.1198 25.3185H0.268985C-0.688692 30.962 0.907436 38.294 5.11241 43.3265C9.19629 48.2034 15.3166 50.6807 23.3193 50.6807C40.6455 50.6807 53.4696 42.6266 59.4688 27.9959C61.8245 28.0403 66.91 28.007 69.5189 22.9745C69.684 22.6968 70.2454 21.5081 70.4545 21.0748L68.9905 20.0861ZM12.7298 16.9867H5.46465V23.5855H12.7408V16.9867H12.7298ZM21.3269 16.9867H14.0507V23.5855H21.3269V16.9867ZM29.9239 16.9867H22.6478V23.5855H29.9239V16.9867ZM21.3269 8.97698H14.0507V15.6536H21.3269V8.97698Z" fill="black"/>
</svg>
