<svg width="63" height="50" viewBox="0 0 63 50" fill="none" xmlns="http://www.w3.org/2000/svg">
<path d="M24.4256 34.478C24.4256 37.1873 22.995 41.6207 19.6087 41.6207C16.2225 41.6207 14.7919 37.1873 14.7919 34.478C14.7919 31.7687 16.2225 27.3353 19.6087 27.3353C22.995 27.3353 24.4256 31.7687 24.4256 34.478ZM63 27.9316C63 32.0669 62.58 36.4484 60.7031 40.2466C55.7287 50.1764 42.0525 49.9431 32.2612 49.9431C22.3125 49.9431 7.8225 50.2931 2.65125 40.2466C0.735 36.4873 0 32.0669 0 27.9316C0 22.5 1.82437 17.3666 5.44687 13.2054C4.76437 11.1572 4.43625 9.00535 4.43625 6.87939C4.43625 4.09231 5.07937 2.69228 6.3525 0.164459C12.2981 0.164459 16.1044 1.33115 20.6325 4.83121C24.4387 3.93675 28.35 3.53489 32.2744 3.53489C35.8181 3.53489 39.3881 3.91082 42.8269 4.7275C47.2894 1.26633 51.0956 0.164459 56.9756 0.164459C58.2619 2.69228 58.8919 4.09231 58.8919 6.87939C58.8919 9.00535 58.5506 11.1184 57.8812 13.1276C61.4906 17.3277 63 22.5 63 27.9316ZM54.5606 34.478C54.5606 28.7872 51.0562 23.7704 44.9137 23.7704C42.4331 23.7704 40.0575 24.2112 37.5637 24.5482C35.6081 24.8464 33.6525 24.963 31.6444 24.963C29.6494 24.963 27.6937 24.8464 25.725 24.5482C23.2706 24.2112 20.8687 23.7704 18.375 23.7704C12.2325 23.7704 8.72812 28.7872 8.72812 34.478C8.72812 45.8597 19.2806 47.6097 28.4681 47.6097H34.7944C44.0212 47.6097 54.5606 45.8727 54.5606 34.478ZM43.7194 27.3353C40.3331 27.3353 38.9025 31.7687 38.9025 34.478C38.9025 37.1873 40.3331 41.6207 43.7194 41.6207C47.1056 41.6207 48.5362 37.1873 48.5362 34.478C48.5362 31.7687 47.1056 27.3353 43.7194 27.3353Z" fill="black"/>
</svg>
