<svg width="50" height="51" viewBox="0 0 50 51" fill="none" xmlns="http://www.w3.org/2000/svg">
<path d="M44.6429 0.348267H5.35714C2.39955 0.348267 0 2.73727 0 5.68185V44.7948C0 47.7394 2.39955 50.1284 5.35714 50.1284H44.6429C47.6004 50.1284 50 47.7394 50 44.7948V5.68185C50 2.73727 47.6004 0.348267 44.6429 0.348267ZM27.2098 39.1723C27.2098 44.017 24.3527 46.2282 20.1897 46.2282C16.4286 46.2282 14.2522 44.2948 13.1362 41.9502L16.9643 39.6501C17.7009 40.9502 18.3705 42.0502 19.9888 42.0502C21.529 42.0502 22.5112 41.4502 22.5112 39.1057V23.2049H27.2098V39.1723ZM38.3259 46.2282C33.9621 46.2282 31.1384 44.1614 29.7656 41.4502L33.5937 39.2501C34.5982 40.8835 35.9152 42.0947 38.2254 42.0947C40.1674 42.0947 41.4174 41.128 41.4174 39.7835C41.4174 38.1834 40.1451 37.6167 37.9911 36.6722L36.8192 36.1722C33.4263 34.7388 31.183 32.9276 31.183 29.1163C31.183 25.605 33.8728 22.9382 38.058 22.9382C41.0491 22.9382 43.192 23.9716 44.7321 26.6828L41.0714 29.0163C40.2679 27.5829 39.3973 27.0162 38.0469 27.0162C36.6741 27.0162 35.8036 27.8829 35.8036 29.0163C35.8036 30.4164 36.6741 30.983 38.6942 31.8609L39.8661 32.3609C43.8616 34.061 46.1049 35.8055 46.1049 39.7168C46.1049 43.917 42.779 46.2282 38.3259 46.2282Z" fill="black"/>
</svg>
