<svg width="81" height="51" viewBox="0 0 81 51" fill="none" xmlns="http://www.w3.org/2000/svg">
<path d="M39.8401 50.0914C39.5756 50.0914 39.3111 50.0152 39.0717 49.8882L36.6534 48.4405C36.2881 48.2373 36.4644 48.1611 36.5904 48.123C37.069 47.9579 37.1698 47.9198 37.6862 47.615C37.7366 47.5896 37.8122 47.6023 37.8626 47.6277L39.7267 48.7453C39.7897 48.7834 39.8905 48.7834 39.9534 48.7453L47.2337 44.5037C47.2967 44.4656 47.3471 44.3894 47.3471 44.3005V35.8299C47.3471 35.741 47.3093 35.6648 47.2337 35.6267L39.9534 31.3978C39.8905 31.3597 39.8023 31.3597 39.7267 31.3978L32.4464 35.6267C32.3709 35.6648 32.3331 35.7537 32.3331 35.8299V44.3005C32.3331 44.3767 32.3834 44.4529 32.4464 44.491L34.4365 45.6466C35.5198 46.1927 36.1873 45.545 36.1873 44.9101V36.5411C36.1873 36.4268 36.2755 36.3252 36.4015 36.3252H37.3209C37.4343 36.3252 37.5351 36.4141 37.5351 36.5411V44.9101C37.5351 46.3705 36.7541 47.196 35.3812 47.196C34.9656 47.196 34.6255 47.196 33.706 46.7388L31.7915 45.6339C31.3254 45.3545 31.0231 44.8466 31.0231 44.3005V35.8299C31.0231 35.2838 31.3128 34.7632 31.7915 34.4965L39.0717 30.2548C39.5378 29.9882 40.1424 29.9882 40.5958 30.2548L47.8761 34.4965C48.3422 34.7759 48.6445 35.2838 48.6445 35.8299V44.3005C48.6445 44.8466 48.3547 45.3672 47.8761 45.6339L40.5958 49.8755C40.3817 50.0152 40.1172 50.0914 39.8401 50.0914ZM45.7223 41.7352C45.7223 40.1477 44.6642 39.7287 42.4222 39.4239C40.155 39.1191 39.9283 38.9667 39.9283 38.4333C39.9283 37.9888 40.1172 37.4047 41.7924 37.4047C43.2913 37.4047 43.8455 37.7348 44.0722 38.7508C44.0974 38.8524 44.173 38.9159 44.2738 38.9159H45.2184C45.2814 38.9159 45.3318 38.8905 45.3696 38.8524C45.4074 38.8016 45.4326 38.7508 45.42 38.6873C45.2688 36.9348 44.1226 36.122 41.7924 36.122C39.7141 36.122 38.4797 37.011 38.4797 38.4841C38.4797 40.0969 39.7141 40.5287 41.7042 40.7319C44.0848 40.9732 44.2738 41.3161 44.2738 41.786C44.2738 42.6114 43.6188 42.9543 42.0821 42.9543C40.155 42.9543 39.7267 42.4717 39.5882 41.5066C39.5756 41.405 39.4874 41.3288 39.374 41.3288H38.4294C38.316 41.3288 38.2152 41.4177 38.2152 41.5447C38.2152 42.7765 38.8828 44.2497 42.0695 44.2497C44.3997 44.2497 45.7223 43.3353 45.7223 41.7352ZM52.5869 35.3727C52.5869 36.1474 51.9571 36.7824 51.1888 36.7824C50.4204 36.7824 49.7907 36.1474 49.7907 35.3727C49.7907 34.5727 50.4456 33.9631 51.1888 33.9631C51.9445 33.9504 52.5869 34.5727 52.5869 35.3727ZM52.3602 35.3727C52.3602 34.7124 51.8311 34.1917 51.1762 34.1917C50.5338 34.1917 50.0048 34.7124 50.0048 35.3727C50.0048 36.0331 50.5338 36.5665 51.1762 36.5665C51.8311 36.5538 52.3602 36.0204 52.3602 35.3727ZM51.7934 36.1601H51.4659C51.4533 36.0839 51.4029 35.6775 51.4029 35.6648C51.3777 35.5759 51.3525 35.5251 51.2392 35.5251H50.9621V36.1601H50.6598V34.5727H51.2014C51.3903 34.5727 51.7556 34.5727 51.7556 34.9918C51.7556 35.2838 51.5666 35.3473 51.4533 35.3854C51.6674 35.3981 51.68 35.5378 51.7178 35.741C51.7304 35.868 51.7556 36.0839 51.7934 36.1601ZM51.4407 35.0426C51.4407 34.8267 51.2895 34.8267 51.214 34.8267H50.9621V35.2711H51.2014C51.4029 35.2711 51.4407 35.1314 51.4407 35.0426ZM17.2938 16.9458C17.2938 16.6029 17.1175 16.2981 16.8278 16.133L9.10666 11.6501C8.98071 11.5739 8.82956 11.5358 8.67841 11.5231H8.60284C8.45169 11.5231 8.31314 11.5739 8.17459 11.6501L0.46604 16.133C0.176339 16.2981 0 16.6156 0 16.9458L0.0125957 29.0103C0.0125957 29.1754 0.100765 29.3278 0.239318 29.4167C0.37787 29.5056 0.554209 29.5056 0.705357 29.4167L5.29018 26.7625C5.57988 26.5847 5.75622 26.2799 5.75622 25.9497V20.3112C5.75622 19.981 5.93256 19.6635 6.22226 19.4984L8.17459 18.3681C8.32573 18.2792 8.47688 18.2411 8.64062 18.2411C8.80437 18.2411 8.96811 18.2792 9.10666 18.3681L11.059 19.4984C11.3487 19.6635 11.525 19.981 11.525 20.3112V25.9497C11.525 26.2799 11.7014 26.5974 11.9911 26.7625L16.5759 29.4167C16.7144 29.5056 16.9034 29.5056 17.0419 29.4167C17.1805 29.3405 17.2687 29.1754 17.2687 29.0103L17.2938 16.9458ZM59.5145 3.77642V26.1783C59.5145 26.5085 59.3382 26.826 59.0485 26.9911L51.3273 31.4867C51.0376 31.6518 50.6849 31.6518 50.3952 31.4867L42.6741 26.9911C42.3844 26.826 42.2081 26.5085 42.2081 26.1783V17.1871C42.2081 16.8569 42.3844 16.5394 42.6741 16.3743L50.3952 11.8787C50.6849 11.7136 51.0376 11.7136 51.3273 11.8787L53.2545 12.9962C53.4686 13.1232 53.7457 12.9582 53.7457 12.7169V0.779346C53.7457 0.423761 54.1236 0.19517 54.4385 0.372963L59.0359 2.96366C59.3256 3.11605 59.5145 3.43354 59.5145 3.77642ZM53.7205 20.1461C53.7205 20.0572 53.6701 19.981 53.6071 19.9429L50.9621 18.3935C50.8865 18.3554 50.7983 18.3554 50.7227 18.3935L48.0776 19.9429C48.0021 19.981 47.9643 20.0572 47.9643 20.1461V23.232C47.9643 23.3209 48.0147 23.3971 48.0776 23.4352L50.7227 24.9719C50.7983 25.01 50.8865 25.01 50.9495 24.9719L53.5945 23.4352C53.6701 23.3971 53.7079 23.3209 53.7079 23.232V20.1461H53.7205ZM80.1462 20.0572C80.4359 19.8921 80.6122 19.5746 80.6122 19.2444V17.0728C80.6122 16.7426 80.4359 16.4251 80.1462 16.26L72.4754 11.7644C72.1857 11.5993 71.8331 11.5993 71.5434 11.7644L63.8222 16.26C63.5325 16.4251 63.3562 16.7426 63.3562 17.0728V26.064C63.3562 26.4069 63.5325 26.7117 63.8222 26.8768L71.493 31.2835C71.7701 31.4486 72.1228 31.4486 72.4125 31.2835L77.0477 28.6801C77.3626 28.5023 77.3626 28.0451 77.0477 27.8673L69.2761 23.3717C69.125 23.2828 69.0368 23.1304 69.0368 22.9653V20.1461C69.0368 19.981 69.125 19.8286 69.2761 19.7397L71.6945 18.33C71.8331 18.2411 72.022 18.2411 72.1606 18.33L74.5789 19.7397C74.7175 19.8286 74.8182 19.981 74.8182 20.1461V22.3558C74.8182 22.7114 75.2087 22.9399 75.5236 22.7622L80.1462 20.0572ZM70.4098 20.5016C70.3594 20.5397 70.3216 20.5905 70.3216 20.654V22.3812C70.3216 22.4447 70.3594 22.5082 70.4098 22.5336L71.896 23.3971C71.9464 23.4352 72.022 23.4352 72.0724 23.3971L73.5587 22.5336C73.6091 22.4955 73.6468 22.4447 73.6468 22.3812V20.654C73.6468 20.5905 73.6091 20.527 73.5587 20.5016L72.0724 19.6381C72.022 19.6 71.9464 19.6 71.896 19.6381L70.4098 20.5016ZM38.3916 26.0259V17.0855C38.3916 16.7553 38.19 16.4378 37.9003 16.2727L30.2044 11.8025C29.9399 11.6501 29.5746 11.6247 29.2723 11.8025L21.5764 16.2727C21.2867 16.4378 21.0851 16.7426 21.0851 17.0855V26.0259C21.0851 26.3815 21.3245 26.6863 21.589 26.8387L29.2975 31.3089C29.5998 31.4867 29.9525 31.474 30.2296 31.3089L37.9129 26.8387C38.1397 26.7117 38.3034 26.4958 38.3664 26.2418C38.379 26.1783 38.3916 26.1021 38.3916 26.0259ZM29.033 10.1643L28.9322 10.2278H29.0708L29.033 10.1643ZM38.6309 26.699L38.5805 26.6101V26.7244L38.6309 26.699Z" fill="black"/>
</svg>
