<svg width="96" height="51" viewBox="0 0 96 51" fill="none" xmlns="http://www.w3.org/2000/svg">
<path d="M47.5342 3.38694C72.9947 3.38694 92.5728 14.0647 92.5728 25.7924C92.5728 37.5202 72.9798 48.1979 47.5342 48.1979C22.0737 48.1979 2.49554 37.5202 2.49554 25.7924C2.49554 14.0647 22.0885 3.38694 47.5342 3.38694ZM47.5342 0.902374C21.2864 0.902374 0 12.0386 0 25.7924C0 39.5463 21.2864 50.6825 47.5342 50.6825C73.7819 50.6825 95.0683 39.5463 95.0683 25.7924C95.0683 12.0386 73.7819 0.902374 47.5342 0.902374ZM32.4124 23.7959C31.2389 29.7855 27.0945 29.1644 21.9994 29.1644L24.0345 18.7232C29.6791 18.7232 33.5116 18.1169 32.4124 23.7959ZM14.4682 39.7386H19.9198L21.2121 33.113C27.3173 33.113 31.1052 33.5567 34.6108 30.2883C38.4878 26.7389 39.4979 20.424 36.735 17.2591C35.2941 15.6027 32.9768 14.7893 29.8277 14.7893H19.3256L14.4682 39.7386ZM42.0529 8.14904H47.4748L46.1824 14.7746C50.8616 14.7746 55.1991 14.4344 57.2935 16.357C59.492 18.3683 58.4373 20.9416 56.0606 33.0835H50.5645C52.8521 21.3409 53.2828 20.3648 52.451 19.4775C51.6488 18.6197 49.8218 18.7972 45.41 18.7972L42.6174 33.0835H37.1955L42.0529 8.14904ZM75.0149 23.7959C73.8265 29.8742 69.5633 29.1644 64.6019 29.1644L66.637 18.7232C72.3114 18.7232 76.1141 18.1169 75.0149 23.7959ZM57.0707 39.7386H62.5371L63.8295 33.113C70.2466 33.113 73.7968 33.4828 77.2282 30.2883C81.1052 26.7389 82.1153 20.424 79.3524 17.2591C77.9115 15.6027 75.5942 14.7893 72.445 14.7893H61.943L57.0707 39.7386Z" fill="black"/>
</svg>
