<svg width="57" height="50" viewBox="0 0 57 50" fill="none" xmlns="http://www.w3.org/2000/svg">
<path d="M46.3775 16.2524C45.7786 16.0524 45.1798 15.8635 44.5809 15.6857C44.6807 15.2746 44.7694 14.8635 44.8582 14.4524C46.2222 7.83019 45.3239 2.508 42.2964 0.752454C39.3798 -0.925314 34.6223 0.81912 29.8093 5.01909C29.3325 5.4302 28.8667 5.86353 28.4231 6.29686C28.1237 6.00798 27.8132 5.71909 27.5026 5.44131C22.4568 0.952453 17.3999 -0.936424 14.3724 0.830231C11.4668 2.51911 10.6018 7.53019 11.8217 13.7968C11.9437 14.419 12.0768 15.0301 12.232 15.6524C11.5223 15.8524 10.8236 16.0746 10.1693 16.3079C4.24738 18.3635 0 21.6079 0 24.9634C0 28.4301 4.52463 31.9078 10.6795 34.0189C11.1785 34.1856 11.6775 34.3522 12.1877 34.4967C12.0213 35.1634 11.8772 35.8189 11.7441 36.4967C10.5796 42.6633 11.489 47.5522 14.3945 49.2299C17.3888 50.9633 22.4235 49.1855 27.3252 44.8855C27.7134 44.5411 28.1015 44.1855 28.4896 43.8077C28.9776 44.2855 29.4877 44.7411 29.9978 45.1855C34.7443 49.2744 39.4353 50.9299 42.3297 49.2522C45.3239 47.5188 46.2998 42.2633 45.0356 35.8633C44.9358 35.3745 44.8249 34.8745 44.7029 34.3634C45.0578 34.2634 45.4016 34.1522 45.7453 34.0411C52.1441 31.9189 56.7797 28.4856 56.7797 24.9634C56.7797 21.5968 52.4103 18.3301 46.3775 16.2524ZM31.373 6.81908C35.4984 3.21911 39.3465 1.808 41.0987 2.81911C42.9729 3.89688 43.6937 8.25241 42.5182 13.9746C42.4406 14.3524 42.363 14.719 42.2631 15.0857C39.8012 14.5301 37.306 14.1301 34.7997 13.9079C33.3581 11.8413 31.7833 9.86351 30.0755 8.00796C30.508 7.59686 30.9294 7.20797 31.373 6.81908ZM18.5421 30.73C19.1077 31.6967 19.6844 32.6634 20.2943 33.6078C18.5643 33.4189 16.8454 33.1411 15.1486 32.7745C15.6366 31.1745 16.2465 29.5189 16.9563 27.8301C17.4664 28.8078 17.9876 29.7745 18.5421 30.73ZM15.1819 17.3635C16.7788 17.0079 18.4756 16.719 20.2388 16.4968C19.6511 17.419 19.0744 18.3635 18.531 19.319C17.9876 20.2634 17.4553 21.2301 16.9563 22.2079C16.2576 20.5523 15.6699 18.9301 15.1819 17.3635ZM18.2205 25.019C18.9524 23.4856 19.7509 21.9857 20.5937 20.5079C21.4365 19.0301 22.3459 17.5968 23.2996 16.1857C24.9631 16.0635 26.6598 15.9968 28.3898 15.9968C30.1198 15.9968 31.8277 16.0635 33.48 16.1857C34.4227 17.5857 35.3209 19.019 36.1749 20.4857C37.0288 21.9523 37.8272 23.4523 38.5813 24.9745C37.8383 26.5078 37.0399 28.019 36.1859 29.5078C35.3431 30.9856 34.4449 32.4189 33.5022 33.8411C31.8498 33.9634 30.1309 34.0189 28.3898 34.0189C26.6487 34.0189 24.9631 33.9634 23.3329 33.8634C22.3681 32.4523 21.4587 31.0078 20.6048 29.5301C19.7509 28.0523 18.9635 26.5523 18.2205 25.019ZM38.2486 30.7078C38.8142 29.7301 39.3465 28.7412 39.8678 27.7412C40.5775 29.3523 41.1985 30.9856 41.7419 32.6634C40.023 33.0523 38.2819 33.3523 36.5297 33.5523C37.1286 32.6189 37.6942 31.6634 38.2486 30.7078ZM39.8456 22.2079C39.3244 21.2301 38.792 20.2523 38.2376 19.2968C37.6942 18.3523 37.1286 17.419 36.5408 16.4968C38.3263 16.719 40.0341 17.019 41.631 17.3857C41.1209 19.0301 40.522 20.6301 39.8456 22.2079ZM28.412 9.70795C29.5764 10.9746 30.6743 12.3079 31.6946 13.6857C29.4988 13.5857 27.2919 13.5857 25.0962 13.6857C26.183 12.2524 27.303 10.9191 28.412 9.70795ZM15.5479 2.89689C17.411 1.808 21.5474 3.36355 25.9057 7.23019C26.183 7.47463 26.4602 7.7413 26.7485 8.00796C25.0296 9.86351 23.4438 11.8413 21.991 13.9079C19.4847 14.1301 17.0006 14.519 14.5387 15.0635C14.3945 14.4968 14.2725 13.919 14.1506 13.3413C13.1081 7.96352 13.7957 3.90799 15.5479 2.89689ZM12.8309 32.1856C12.3651 32.0523 11.9104 31.9078 11.4557 31.7523C9.09362 31.0078 6.40989 29.8301 4.46918 28.2856C3.34911 27.5078 2.59501 26.3079 2.3843 24.9634C2.3843 22.9301 5.88867 20.3301 10.9456 18.5635C11.5777 18.3412 12.2209 18.1412 12.8641 17.9523C13.6182 20.3634 14.5276 22.7301 15.5811 25.019C14.5165 27.3412 13.5961 29.7412 12.8309 32.1856ZM25.7616 43.0744C23.9317 44.7522 21.8136 46.0855 19.5069 46.9966C18.276 47.5855 16.8565 47.6411 15.5922 47.1411C13.829 46.1188 13.097 42.1966 14.0951 36.9189C14.2171 36.2967 14.3502 35.6745 14.5054 35.0634C16.9895 35.5967 19.4958 35.9633 22.0354 36.1522C23.4992 38.23 25.1073 40.2189 26.8262 42.0855C26.4713 42.43 26.1164 42.7633 25.7616 43.0744ZM28.4785 40.3744C27.3474 39.1522 26.2162 37.7967 25.1183 36.3411C26.183 36.3856 27.2809 36.4078 28.3898 36.4078C29.5321 36.4078 30.6521 36.3856 31.7611 36.33C30.7409 37.7411 29.643 39.0855 28.4785 40.3744ZM42.9729 43.7077C42.8731 45.0633 42.2077 46.33 41.1431 47.1855C39.3798 48.2077 35.6204 46.8744 31.5615 43.3855C31.0957 42.9855 30.63 42.5522 30.1531 42.1078C31.8498 40.23 33.4135 38.2411 34.833 36.1522C37.3726 35.9411 39.901 35.5522 42.3962 34.9856C42.5071 35.4411 42.6069 35.8967 42.6956 36.3411C43.239 38.7411 43.3278 41.2411 42.9729 43.7077ZM44.9912 31.7634C44.6807 31.8634 44.3702 31.9634 44.0486 32.0523C43.2723 29.6301 42.3186 27.2634 41.2207 24.9634C42.2853 22.6968 43.1836 20.3634 43.9377 17.9746C44.5144 18.1412 45.0689 18.319 45.6012 18.4968C50.769 20.2746 54.3954 22.919 54.3954 24.9412C54.3954 27.119 50.525 29.93 44.9912 31.7634ZM28.3898 30.0967C31.1955 30.0967 33.4689 27.819 33.4689 25.0079C33.4689 22.1968 31.1955 19.919 28.3898 19.919C25.5841 19.919 23.3107 22.1968 23.3107 25.0079C23.3107 27.819 25.5841 30.0967 28.3898 30.0967Z" fill="black"/>
</svg>
