<svg width="50" height="51" viewBox="0 0 50 51" fill="none" xmlns="http://www.w3.org/2000/svg">
<path d="M25 0.458252C11.1895 0.458252 0 11.5986 0 25.3483C0 39.0981 11.1895 50.2384 25 50.2384C38.8105 50.2384 50 39.0981 50 25.3483C50 11.5986 38.8105 0.458252 25 0.458252ZM38.4819 14.8644C37.3256 14.9055 36.5262 14.217 36.4889 13.1713C36.4617 12.2499 37.1623 11.8224 37.1472 11.2794C37.124 10.622 36.123 10.5949 35.8498 10.61C31.8397 10.7395 30.9516 16.3307 29.9133 22.0363C32.0736 22.3525 33.6079 21.9641 34.4637 21.4121C35.6734 20.6343 34.127 19.8344 34.3206 18.9472C34.7238 17.1246 37.6018 17.0403 37.5464 19.4791C37.5101 21.2716 34.9335 23.6753 29.7238 23.062C28.6391 29.0357 27.874 34.6038 23.8569 39.2928C20.9335 42.7513 17.9698 43.2892 16.6411 43.3334C14.1563 43.4187 12.5081 42.0979 12.4496 40.3386C12.3931 38.6324 13.9062 37.703 14.9002 37.6699C17.1069 37.5946 17.9365 40.2462 16.4002 41.0822C15.1815 42.0568 16.4113 42.3478 16.6069 42.3418C17.6573 42.3057 18.3548 41.7888 18.8427 41.4385C21.2621 39.4313 22.1935 35.9326 23.4143 29.5606C24.2399 24.5765 25.128 21.7322 25.252 21.3308C23.5454 20.0511 22.5222 18.4654 20.2268 17.8462C18.6532 17.4216 17.6946 17.7829 17.0202 18.632C16.2218 19.6356 16.4869 20.9404 17.2591 21.7132L18.5323 23.1182C20.0958 24.9178 20.9516 26.3168 20.629 28.1986C20.119 31.2025 16.5242 33.5078 12.2742 32.2071C8.64516 31.0921 7.96976 28.5379 8.40524 27.1268C9.1623 24.703 12.6754 25.9505 11.8952 28.4917C11.6139 29.3548 11.3992 29.3628 11.2621 29.8034C10.8024 31.2858 15.4808 32.6538 16.4032 29.6639C16.8538 28.2067 15.869 27.485 14.1603 25.6645C11.2903 22.4779 12.5474 19.0917 14.4577 17.6685C19.7813 13.7192 24.5907 19.4269 25.6048 20.2589C29.3518 9.31932 35.7389 9.6746 35.9304 9.66758C38.4667 9.58628 40.3851 10.7304 40.4496 12.543C40.4748 13.3148 40.0292 14.8102 38.4819 14.8644Z" fill="black"/>
</svg>
