<svg viewBox='0 0 515 608' xmlns="http://www.w3.org/2000/svg">
    <path d="M226.226 220.94C225.409 219.176 224.134 218.029 223.378 218.379M231.545 182.842C232.845 190.092 234.053 208.567 230.935 213.596C227.817 218.626 226.325 220.554 225.026 220.889M291.16 178.289V193.857C291.16 201.149 292.668 208.819 297.069 213.596C300.589 217.419 306.289 220.554 307.756 221.392M294.429 173.489C289.902 180.781 278.557 187.837 272.803 191.971M247.154 191.971C240.55 188.23 224.9 179.021 222.26 172.483M318.796 106.713C318.749 105.997 319.208 104.594 321.418 104.708C324.18 104.851 323.823 104.455 325.576 107.064C327.33 109.673 328.799 113.959 327.747 119.696C326.695 125.433 323.666 136.091 321.418 139.542C318.796 143.565 318.816 143.508 317.437 145.828C316.058 148.149 315.833 152.618 312.659 152.618C309.447 152.618 309.187 148.831 309.516 147.337M314.737 136.509C316.038 135.695 318.659 133.69 318.737 132.183C318.815 130.677 316.358 129.5 315.12 129.101C315.689 125.395 317.393 117.283 319.653 114.479C322.478 110.974 325.745 111.101 325.239 113.593C324.732 116.085 325.581 114.282 323.695 119.095M198.874 107.481L195.857 102.829C194.474 101.197 192.538 99.1696 190.702 101.32C187.81 104.708 186.553 107.49 186.553 113.593C186.553 119.696 189.319 126.418 190.702 129.5C192.085 132.583 194.267 138.506 195.983 140.296C198.874 143.314 197.994 144.881 199.88 146.583C201.766 148.285 202.646 151.235 204.909 149.097C206.905 147.212 205.077 141.512 204.909 140.296M199.755 132.583C198.455 132.357 195.857 131.425 195.857 129.5C195.857 127.095 197.491 127.598 197.491 124.203C197.491 120.808 197.994 113.774 194.6 109.87C191.884 106.747 190.702 106.279 190.702 107.064C190.367 108.754 188.439 109.292 189.445 113.013C190.451 116.735 190.702 119.019 190.702 119.696M242.377 64.1044C239.058 59.4776 240.239 54.0461 241.245 51.9087M281.227 65.4874C285.351 60.5588 283.7 51.4477 282.359 47.5081M300.086 73.9113C307.127 74.1125 307.127 68.3792 306.247 65.4874M304.864 53.9203C304.261 57.139 304.613 58.5304 304.864 58.8238M221.506 73.9113C216.979 73.9113 216.77 69.0498 217.231 66.619M206.292 74.6657C206.494 78.2867 207.717 79.8625 208.304 80.1978M7.51458 534.96C9.62684 535.061 10.6578 537.182 10.9093 538.229C11.3703 539.361 12.0157 541.624 10.9093 541.624C9.80286 541.624 8.68806 541.708 8.26896 541.75M15.687 541.75C17.4975 540.945 18.8721 539.068 19.3331 538.229C19.4589 537.224 19.5343 534.81 18.8302 533.2C17.9501 531.189 15.3098 530.811 14.9326 532.194C14.5554 533.577 14.304 534.583 14.304 535.715M27.0026 539.361C29.5172 538.732 30.7745 538.104 30.9002 537.224C31.0259 536.343 31.2774 533.452 30.9002 532.823C30.523 532.194 29.7687 530.811 29.14 530.811C28.5114 530.811 26.1225 530.56 25.8711 531.691M490.441 539.738C488.932 538.481 487.297 539.235 487.046 536.721C486.845 534.709 487.549 531.524 487.926 530.183C488.638 529.889 490.239 529.479 490.943 530.183C491.648 530.887 491.907 531.65 491.949 531.943M502.008 541.75C501.253 540.87 498.613 538.481 496.978 538.229C495.671 538.028 497.188 533.452 498.11 531.189C499.116 530.895 501.304 530.635 502.008 531.943C502.712 533.251 503.139 534.332 503.265 534.709M508.797 541.75C507.162 540.618 507.162 540.995 505.905 540.618C504.899 540.317 505.989 537.307 506.66 535.841C507.121 535.547 508.193 535.136 508.797 535.841C509.4 536.545 509.803 537.475 509.929 537.852M10.9093 543.762C9.33054 546.224 8.7595 548.188 8.6361 549.516C8.53247 550.632 8.89709 551.721 9.16532 552.808C12.0907 564.667 18.3435 584.875 23.9851 584.875C29.8944 584.875 33.1633 588.521 35.3007 590.03C37.4381 591.539 67.9903 595.436 113.253 596.819C161.659 601.22 182.957 598.605 244.011 587.138C274.815 581.353 307.379 572.679 319.575 571.548C331.77 570.416 331.77 573.869 335.291 573.182C337.254 572.799 338.794 571.85 340.446 570.823L340.501 570.788C342.325 569.654 344.289 568.432 347.109 567.776C352.545 566.512 359.431 565.89 367.477 565.89C375.524 565.89 384.954 569.662 392.875 567.776M350.876 524.972C354.625 523.927 363.785 523.128 372.758 516.101C383.193 507.929 392.875 499.631 392.875 499.002C392.875 498.886 393.273 498.341 393.948 497.532M350.876 524.972C350.265 525.143 349.798 525.319 349.498 525.531M350.876 524.972L349.498 525.531M349.498 525.531C347.501 526.94 346.383 529.337 338.968 530.569C337.864 530.752 336.781 530.964 335.675 531.138C324.056 532.968 270.697 535.091 244.011 535.966C225.152 535.966 210.693 530.811 200.635 530.811C190.576 530.811 161.91 528.925 127.335 535.966C122.149 537.022 115.501 538.422 110.354 538.354C105.455 538.288 99.7365 536.005 97.8548 531.482C95.8121 526.572 97.1336 519.117 101.658 514.675C102.1 514.241 102.562 513.795 103.046 513.335C103.475 512.927 103.922 512.508 104.386 512.078C105.181 511.342 106.028 510.574 106.929 509.774C123.776 494.812 119.376 495.19 131.949 487.52C136.008 485.044 139.398 484.341 142.111 484.59C148.017 485.132 152.877 490.219 158.306 492.606C158.813 492.828 159.331 493.061 159.861 493.304C165.143 495.725 172.449 495.16 176.803 496.077C177.935 496.316 178.955 496.894 179.92 497.532L182.295 499.102C182.947 499.533 183.498 500.099 183.913 500.762M182.027 500.133C185.924 501.768 186.427 506.168 188.062 507.174C189.369 507.979 212.495 517.903 223.895 522.765C235.42 526.243 264.354 533.879 274.312 534.08M501.505 540.115C502.469 542.839 501.907 545.572 501.505 549.294C501.264 551.518 499.094 556.61 497.102 561.582C494.84 567.223 491.437 572.815 487.02 576.991C485.384 578.538 483.493 579.885 480.759 580.6C472.587 582.738 455.865 595.562 437.76 596.819C419.655 598.077 387.225 599.565 355.156 596.819C318.443 593.676 278.23 586.209 263.122 584.332M227.415 522.765C233.513 521.987 238.825 521.191 243.409 520.406C249.846 519.302 282.366 525.531 288.897 525.531C296.34 525.531 294.135 525.405 295.309 526.285M386.462 568.539C394.509 568.539 391.995 570.425 399.915 568.539C407.836 566.653 411.86 566.402 415.506 560.87C417.392 558.007 421.5 549.996 424.938 541.624C425.852 539.398 426.719 537.147 427.484 534.96C429.404 529.474 430.685 524.393 430.468 521.139C429.839 511.709 431.096 501.022 426.822 496.119C422.547 491.216 419.404 486.689 415.506 486.312C411.608 485.935 410.854 484.292 407.585 485.549M201.766 513.838C199.796 513.461 195.429 513.184 193.72 515.095C191.582 517.484 186.553 522.765 186.553 526.788C186.553 528.674 186.302 530.434 186.93 530.183M195.354 512.078C193.72 512.078 188.187 511.796 186.553 516.101C185.245 519.545 183.169 520.406 182.295 520.406M408.465 485.549C405.287 485.241 396.927 493.961 393.948 497.532M393.948 497.532C360.939 497.532 323.849 516.101 321.586 516.101M92.8847 489.321C108.248 480.394 118.408 483.16 122.305 483.286C126.203 483.411 134.943 483.286 139.782 483.286M232.696 204.293L226.283 208.567M226.283 208.567C224.104 209.95 218.715 213.446 214.591 216.363C212.731 217.678 210.087 218.838 207.424 219.78M226.283 208.567C225.315 211.538 224.251 215.399 222.889 219.78C218.294 234.556 212.044 255.247 209.561 267.66C205.538 287.777 202.269 299.47 205.915 323.107C209.561 346.744 216.979 400.304 216.979 412.123C216.979 423.942 219.871 426.833 219.871 432.868C219.871 438.903 216.979 442.424 216.979 451.602C216.979 460.78 219.871 459.271 219.871 467.067C219.871 469.884 220.128 472.276 220.467 474.173C220.856 476.349 219.19 478.759 216.979 478.759M113.106 377.422C113.986 369.878 114.611 354.614 115.516 344.858C116.648 332.662 125.826 287.148 126.58 284.005C127.335 280.862 138.776 243.143 140.159 241.383C141.219 240.033 143.314 239.866 147.86 239.068C151.08 238.503 154.124 237.143 157.134 235.868C166.762 231.787 187.854 225.355 199 222.146C200.91 221.755 204.181 220.929 207.424 219.78M292.543 202.784C294.219 203.957 299.584 206.757 302.098 206.556C305.241 206.304 307.253 204.544 309.139 206.556M309.139 206.556C309.443 206.88 309.933 207.484 310.581 208.285L310.724 208.462M309.139 206.556C309.607 206.918 310.148 207.541 310.724 208.462M310.724 208.462C314.174 212.719 321.771 222 329.884 224.912M310.724 208.462C311.758 210.111 312.909 212.716 313.973 216.488M329.884 224.912C339.691 228.433 362.825 241.508 370.118 246.16C377.41 250.812 386.84 256.344 391.492 257.225C396.144 258.105 399.538 258.105 400.041 259.739C400.544 261.374 412.363 294.566 408.339 326.124C407.233 332.461 407.878 343.768 408.339 348.63C410.191 366.71 413.804 405.516 414.316 424.146C414.375 426.31 415.033 428.413 416.213 430.228M329.884 224.912C343.997 235.473 335.416 318.58 333.153 336.434C330.89 354.288 325.107 415.266 325.358 449.716C325.559 477.276 326.238 499.379 328.124 513.586M421.164 448.71C421.792 445.357 422.22 442.927 421.415 438.903C421.087 437.263 420.581 436.013 420.039 435.085C419.015 433.328 417.321 431.933 416.213 430.228M412.363 429.222C413.972 430.027 415.6 430.228 416.213 430.228M114.133 373.901L113.443 381.842C113.225 384.344 112.064 386.638 110.64 388.706L108.438 391.902C108.045 392.473 107.597 393.005 107.102 393.49C103.852 396.674 102.946 401.553 104.838 405.691L105.709 407.597L108.849 413.026C109.114 413.484 109.362 413.952 109.592 414.427C111.49 418.35 106.423 420.519 103.572 423.816C101.436 426.285 98.5921 432.987 96.3323 439.029M96.3323 439.029C95.1862 442.094 94.5675 448.383 93.8906 450.47M96.3323 439.029C97.4462 436.975 100.881 432.868 105.709 432.868C111.744 432.868 116.773 429.725 124.568 436.389C132.364 443.052 136.01 460.529 137.393 470.964C138.499 479.313 139.698 482.867 140.913 484.92M149.337 267.66C149.086 278.138 149.413 302.99 152.732 318.58C156.881 338.068 159.898 368.243 164.802 374.656C169.705 381.068 168.951 387.229 173.477 388.989C173.815 389.12 174.102 389.254 174.345 389.389C176.631 390.66 174.498 394.721 175.706 397.04C176.289 398.159 176.379 399.471 175.955 400.66L174.37 405.097C173.779 406.751 173.477 408.495 173.477 410.252V414.579C173.477 416.455 173.246 418.311 172.789 420.131C168.18 438.479 160.15 472.066 160.15 478.759C160.15 485.8 158.976 487.602 158.515 491.835M387.72 308.396C387.259 316.024 384.929 334.749 379.296 348.63C372.255 365.98 360.311 415.015 359.682 423.942C359.053 432.868 360.436 441.418 356.413 438.903C352.232 436.29 362.455 450.728 363.07 455.62C363.168 456.401 363.264 457.24 363.358 458.14C364.138 465.568 364.883 469.599 365.214 483.274M168.574 477.376C174.86 475.993 173.477 474.862 182.278 474.862C186.773 474.862 191.37 475.13 195.731 475.538L195.753 475.54M189.948 507.426C191.205 501.976 190.821 497.958 191.903 491.142C192.28 488.77 193.037 486.477 194.163 484.356L196.457 480.035C197.365 478.326 197.664 475.729 195.753 475.54M216.979 478.759C214.849 478.277 211.448 477.617 207.298 476.976M216.979 478.759V499.002V519.621M207.298 476.976C203.864 476.446 199.917 475.93 195.753 475.54M207.298 476.976C208.095 472.835 209.763 461.585 210.064 449.716C210.442 434.88 209.813 422.684 208.556 419.667C207.298 416.649 200.635 350.641 198.12 342.092C195.605 333.542 191.959 301.356 192.588 283.376C193.091 268.993 202.688 234.986 207.424 219.78M403.31 432.868C402.933 432.072 400.946 430.957 396.018 432.868C389.857 435.257 386.965 434.629 382.942 439.532C378.919 444.435 379.799 444.813 375.775 448.082C375.016 450.554 373.335 457.159 372.688 463.798C371.878 472.096 379.044 497.87 382.942 497.87M313.973 216.488C316.087 223.981 317.858 236.082 317.689 254.458C317.311 295.446 315.425 373.65 310.648 398.796C305.87 423.942 302.224 457.134 302.224 474.862V494.601V515.724M313.973 216.488C313.493 216.949 312.156 218.253 310.648 219.78C297.195 230.993 283.364 235.851 266.517 235.851C262.361 235.851 258.503 235.988 254.824 235.921C241.547 235.921 228.421 224.726 223.517 219.129M310.145 532.823L311.905 529.428H314.671C317.487 528.925 319.7 523.016 320.455 520.124C320.875 517.654 321.915 514.101 323.525 512.958M326.993 514.215C325.642 512.452 324.482 512.278 323.525 512.958M323.525 512.958C315.251 513.545 298.452 515.699 297.446 519.621C296.189 524.525 294.051 531.817 289.525 533.452M392.623 497.116C397.652 491.835 408.842 482.406 410.1 478.885M365.214 483.274C365.328 487.988 365.393 493.849 365.393 501.391M365.214 483.274C366.262 487.888 370.394 497.468 378.542 498.876M402.933 432.491C408.633 436.514 420.598 449.311 431.348 459.523C439.837 467.587 446.057 473.532 448.95 476.149C449.776 476.895 450.686 477.539 451.639 478.115L472.084 490.452L480.776 494.206C482.352 494.886 483.832 495.771 485.316 496.636C488.735 498.628 492.335 499.996 494.715 504.031C496.196 506.382 497.775 508.321 499.116 511.575M490.836 531.566L490.906 532.098C491.642 537.73 495.633 544.842 500.75 542.378C501.151 542.185 501.683 538.196 502.008 537.601M462.026 492.59C465.211 494.14 468.186 494.631 474.096 497.996C483.148 503.151 479.502 500.008 485.914 509.94C491.446 518.867 490.818 516.73 490.818 529.554C491.019 539.713 489.56 540.618 488.806 540.618C485.826 540.618 483.094 539.469 482.039 536.682C481.401 534.995 480.831 533.254 480.421 531.935C480.137 531.021 479.947 530.082 479.831 529.132L479.323 524.983C478.863 521.218 477.334 517.704 475.424 514.427C474.79 513.338 474.74 513.179 472.937 511.389C471.711 510.172 470.346 509.084 468.803 508.307C465.857 506.821 462.526 505.614 458.254 503.905C453.279 501.915 447.403 500.377 448.609 505.598C448.883 506.787 449.244 508.189 449.706 509.832C450.03 510.987 450.449 512.136 451.083 513.154C452.983 516.212 454.252 515.85 456.06 519.835C457.065 522.05 457.845 524.657 456.867 526.884C456.204 528.393 454.934 528.245 453.313 527.833C452.249 527.563 451.207 527.204 450.193 526.781C444.828 524.54 440.716 520.135 438.278 514.856C436.898 511.869 435.39 508.997 434.114 507.426C431.998 504.822 428.882 498.164 425.72 493.278C423.061 489.169 419.256 485.479 415.382 482.488C410.245 478.522 402.652 474.353 396.269 471.97C386.965 467.36 375.826 461.736 373.512 459.523M499.116 511.575C499.711 513.019 503.199 520.194 503.265 520.879C503.642 524.776 502.888 532.949 502.008 537.601M499.116 511.575C501.603 512.79 510.18 522.416 510.18 526.914C510.18 531.566 509.007 539.367 508.671 541.043C507.928 544.245 503.709 544.173 502.803 541.013C502.447 539.77 502.21 538.48 502.008 537.601M112.247 432.491C106.547 436.514 98.7437 445.592 88.9871 456.757C80.563 466.397 70.2204 473.481 66.3116 476.261C65.4045 476.907 64.4943 477.539 63.5412 478.115L43.0959 490.452L34.4043 494.206C32.8277 494.886 31.3481 495.771 29.8644 496.636C26.445 498.628 22.8446 499.996 20.4647 504.031C18.9842 506.382 17.4052 508.321 16.0642 511.575M24.3436 531.566L24.274 532.098C23.538 537.73 19.5469 544.842 14.4297 542.378C14.0287 542.185 13.4974 538.196 13.1724 537.601M53.1543 492.59C49.9691 494.14 46.9936 494.631 41.0843 497.996C32.0318 503.151 35.6779 500.008 29.2657 509.94C23.7337 518.867 24.3623 516.73 24.3623 529.554C24.1611 539.713 25.6196 540.618 26.374 540.618C29.3542 540.618 32.0859 539.469 33.1406 536.682C33.7791 534.995 34.3492 533.254 34.759 531.935C35.0429 531.021 35.2334 530.082 35.3495 529.132L35.8567 524.983C36.3169 521.218 37.8461 517.704 39.7556 514.427C40.3903 513.338 40.4397 513.179 42.2432 511.389C43.4694 510.172 44.8343 509.084 46.3769 508.307C49.3233 506.821 52.6536 505.614 56.9262 503.905C61.9014 501.915 67.7774 500.377 66.5715 505.598C66.2967 506.787 65.9358 508.189 65.474 509.832C65.1496 510.987 64.7305 512.136 64.0975 513.154C62.1968 516.212 60.9284 515.85 59.1202 519.835C58.115 522.05 57.4392 524.678 58.5933 526.819C59.448 528.405 60.903 529.243 62.4742 529.622C65.7602 530.416 68.8346 528.226 71.1234 525.739C72.6246 524.107 73.7626 522.172 74.9395 520.293C77.2065 516.673 80.932 512.427 82.9521 509.94C86.2211 505.917 90.3067 490.322 94.5192 487.812C112.247 477.251 128.089 478.257 136.764 469.078M16.0642 511.575C15.4692 513.019 11.9814 520.194 11.9151 520.879C11.5379 524.776 12.2923 532.949 13.1724 537.601M16.0642 511.575C13.5771 512.79 5 522.416 5 526.914C4.99999 531.566 6.17347 539.367 6.50875 541.043C7.25214 544.245 11.4713 544.173 12.377 541.013C12.7333 539.77 12.9699 538.48 13.1724 537.601M417.638 434.161C413.95 431.94 405.668 426.542 402.047 422.72M361.437 425.486L369.864 417.861C371.281 416.579 372.854 415.482 374.547 414.596L378.533 412.507C379.455 412.025 380.419 411.625 381.412 411.315L381.983 411.137C383.281 410.731 384.635 410.524 385.996 410.524C388.907 410.524 391.739 411.468 394.068 413.215L402.047 419.2C403.556 420.625 406.976 423.676 408.585 424.48M138.645 422.343L118.627 419.263C117.808 419.137 116.98 419.074 116.151 419.074H114.133M163.413 438.31L161.024 431.647M133.786 403.05C138.096 403.352 143.161 404.056 145.56 405.495C148.155 407.053 150.455 412.898 151.904 417.759C152.797 420.756 154.035 423.662 155.974 426.115M395.046 416.296C392.188 413.913 388.399 413.045 384.741 413.719C382.249 414.178 379.939 415.338 378.083 417.064L373.181 421.62C372.393 422.352 371.554 423.028 370.67 423.641L368.91 424.862C365.821 427.004 363.314 429.883 361.616 433.238M348.52 567.487C353.955 566.223 360.841 565.602 368.888 565.602C376.934 565.602 386.364 569.373 394.285 567.487C402.206 565.602 406.229 565.35 409.875 559.818C413.522 554.286 424.837 520.088 424.837 520.088C424.837 520.088 425.466 499.971 421.191 495.067C416.916 490.164 413.773 485.638 409.875 485.261M348.52 567.487C353.348 565.362 355.896 552.939 356.566 546.994L364.059 545.388M348.52 567.487C345.7 568.143 343.735 569.366 341.912 570.5L341.856 570.534C340.205 571.562 338.664 572.511 336.701 572.894M189.472 506.886C187.838 505.88 187.335 501.48 183.437 499.845C179.54 498.211 170.864 499.342 164.829 496.576C164.3 496.334 163.781 496.101 163.275 495.878C161.265 494.995 159.334 493.742 157.399 492.486L157.397 492.485C156.986 492.218 156.574 491.951 156.162 491.688C153.272 489.841 150.335 488.162 147.08 487.863C146.741 487.832 146.391 487.815 146.031 487.816C143.509 487.817 140.469 488.626 136.917 490.793C124.344 498.462 128.745 498.085 111.897 513.047C109.878 514.84 108.132 516.47 106.627 517.947C99.1712 524.525 102.725 537.816 106.627 537.816M195.13 514.807C192.993 517.196 187.963 522.476 187.963 526.5C187.963 528.386 187.712 530.146 188.341 529.894M342.485 530.281C345.752 531.2 352.286 534.22 352.286 538.947C352.286 544.856 353.549 555.92 345.125 568.116M394.285 513.55C397.554 516.399 403.539 523.784 401.326 530.523C399.113 537.262 382.299 541.797 374.168 543.222L365.001 545.186M365.001 545.186L364.059 545.388M365.001 545.186C365.342 543.665 365.242 540.271 365.242 539.953C365.242 539.704 364.747 538.033 364.448 535.922M365.001 545.186C364.827 545.964 364.537 546.251 364.059 545.388M364.059 545.388C363.996 545.273 363.929 545.139 363.859 544.982C363.188 543.487 361.503 541.125 359.818 538.91M394.285 513.927C390.094 516.693 380.103 522.828 373.665 525.242C365.619 528.26 355.058 532.786 354.052 532.786C353.046 532.786 351.914 530.146 350.908 529.894C349.903 529.643 348.394 528.938 346.382 529.14M397.177 534.672C394.788 529.853 389.985 519.66 389.885 517.447C389.824 516.115 389.501 520.151 389.337 525.073M389.337 525.073C389.16 530.367 389.168 536.685 389.885 538.444C390.656 540.337 387.806 534.846 384.888 529.117M389.337 525.073C387.55 522.402 386.031 520.164 385.61 519.836C385.047 519.398 384.951 524.129 384.888 529.117M389.337 525.073C392.349 529.576 396.121 535.307 396.674 535.175M384.888 529.117C383.619 526.627 382.338 524.092 381.335 522.099C380.89 524.983 380.225 529.39 379.691 533.171M384.888 529.117C384.824 534.152 384.795 539.448 384.352 539.953C383.899 540.471 381.814 536.924 379.691 533.171M379.691 533.171C379.169 536.864 378.771 539.959 378.82 540.456C378.921 541.462 377.521 541.462 376.809 541.336C375.655 539.521 374.077 537.187 372.44 535.009M379.691 533.171C377.69 529.634 375.655 525.914 374.923 525.242C374.099 524.487 373.237 529.922 372.44 535.009M372.44 535.009C369.202 530.7 365.733 527.002 364.864 529.14C364.04 531.169 364.143 533.774 364.448 535.922M372.44 535.009C371.778 539.235 371.161 543.222 370.648 543.222C370.055 543.222 367.012 539.357 364.448 535.922M364.448 535.922C362.914 533.867 361.551 531.967 360.987 531.14M359.818 538.91C358.197 536.782 356.577 534.789 355.857 533.834M359.818 538.91C359.102 541.619 358.224 544.429 357.572 546.365C357.278 542.759 356.57 535.869 355.857 533.834M359.818 538.91C360.712 535.527 361.353 532.302 360.987 531.14M355.857 533.834C355.499 533.36 355.364 533.141 355.56 533.289C355.659 533.363 355.758 533.552 355.857 533.834ZM360.987 531.14C360.949 531.021 360.901 530.923 360.841 530.849C360.616 530.571 360.694 530.711 360.987 531.14ZM196.764 511.789C195.13 511.789 189.598 511.508 187.963 515.813C186.656 519.256 184.58 520.117 183.705 520.117C183.029 519.926 182.281 519.719 181.472 519.501M181.472 519.501C180.83 519.327 180.151 519.147 179.438 518.961M181.472 519.501C181.909 519.119 182.247 518.871 182.431 518.83M181.472 519.501C180.662 520.207 179.513 521.371 178.376 522.52M179.438 518.961C179.086 518.869 178.726 518.775 178.359 518.681M179.438 518.961C179.577 518.479 179.665 518.122 179.665 517.95C179.665 517.702 179.146 518.028 178.359 518.681M179.438 518.961C179.182 519.847 178.752 521.157 178.376 522.52M178.359 518.681C177.594 518.485 176.798 518.283 175.975 518.079M178.359 518.681C177.576 519.33 176.53 520.302 175.466 521.356M175.975 518.079C175.406 517.938 174.824 517.796 174.231 517.653M175.975 518.079C175.997 518.901 175.762 520.118 175.466 521.356M175.975 518.079C175.956 517.394 175.758 516.985 175.265 517.07C175.013 517.114 174.659 517.324 174.231 517.653M174.231 517.653C173.206 517.405 172.149 517.155 171.069 516.907M174.231 517.653C173.413 518.283 172.326 519.35 171.178 520.522M171.069 516.907C170.539 516.785 170.002 516.664 169.462 516.543M171.069 516.907C171.065 516.365 171.077 515.974 171.116 515.813C171.177 515.557 170.502 515.877 169.462 516.543M171.069 516.907C171.077 517.809 171.129 519.13 171.178 520.522M169.462 516.543C168.209 516.263 166.933 515.987 165.649 515.72M169.462 516.543C168.365 517.246 166.861 518.335 165.385 519.54M165.649 515.72C165.119 515.61 164.587 515.501 164.054 515.395M165.649 515.72C165.753 516.603 165.603 518.019 165.385 519.54M165.649 515.72C165.575 515.08 165.367 514.721 164.955 514.807C164.741 514.851 164.433 515.061 164.054 515.395M164.054 515.395C162.78 515.139 161.504 514.896 160.24 514.668M164.054 515.395C163.149 516.193 161.841 517.704 160.448 519.378M160.24 514.668C159.669 514.565 159.1 514.466 158.535 514.37M160.24 514.668C160.228 513.904 160.243 513.326 160.303 513.047C160.392 512.633 159.681 513.227 158.535 514.37M160.24 514.668C160.26 515.907 160.353 517.636 160.448 519.378M158.535 514.37C156.932 514.099 155.36 513.858 153.849 513.659M158.535 514.37C157.294 515.609 155.541 517.494 153.739 519.444M153.849 513.659C153.187 513.572 152.536 513.492 151.9 513.422M153.849 513.659C154.012 514.955 153.901 517.179 153.739 519.444M153.849 513.659C153.744 512.827 153.526 512.377 153.136 512.544C152.905 512.643 152.475 512.953 151.9 513.422M151.9 513.422C150.514 513.268 149.197 513.157 147.973 513.097M151.9 513.422C150.765 514.348 149.069 515.893 147.247 517.644M147.973 513.097C147.694 513.084 147.419 513.073 147.15 513.064M147.973 513.097C148.057 512.488 148.107 512.031 148.107 511.789C148.107 511.409 147.743 511.963 147.15 513.064M147.973 513.097C147.817 514.222 147.544 515.868 147.247 517.644M147.15 513.064C146.766 513.053 146.393 513.047 146.031 513.047C141.959 515.26 137.336 522.937 135.534 526.5C136.619 526.352 137.866 526.197 139.243 526.044M147.15 513.064C146.009 515.185 144.022 519.337 142.159 522.765M139.243 526.044C139.595 526.005 139.955 525.966 140.323 525.927M139.243 526.044C139.987 525.125 141.006 523.987 142.159 522.765M139.243 526.044C138.158 527.384 137.656 528.26 138.175 528.26C138.655 528.26 139.423 527.337 140.323 525.927M140.323 525.927C142.073 525.742 144.002 525.563 146.052 525.402M140.323 525.927C140.894 525.032 141.519 523.941 142.159 522.765M146.052 525.402C146.795 525.344 147.553 525.288 148.324 525.236M146.052 525.402C146.267 523.488 146.785 520.409 147.247 517.644M146.052 525.402C145.935 526.448 145.908 527.146 146.031 527.254C146.165 527.373 147.052 526.546 148.324 525.236M148.324 525.236C149.946 525.126 151.626 525.03 153.338 524.954M148.324 525.236C149.801 523.715 151.799 521.542 153.739 519.444M153.338 524.954C154.18 524.917 155.03 524.885 155.885 524.858M153.338 524.954C153.292 525.899 153.295 526.597 153.388 526.877C153.544 527.345 154.535 526.398 155.885 524.858M153.338 524.954C153.409 523.498 153.594 521.455 153.739 519.444M155.885 524.858C157.395 524.811 158.92 524.782 160.441 524.775M155.885 524.858C157.211 523.345 158.883 521.258 160.448 519.378M160.441 524.775C160.52 524.775 160.598 524.774 160.677 524.774M160.441 524.775C160.246 525.206 160.186 525.579 160.303 525.871C160.587 526.582 160.681 526.006 160.677 524.774M160.441 524.775C160.504 524.636 160.582 524.491 160.672 524.34M160.677 524.774C161.998 524.77 163.316 524.783 164.62 524.815M160.677 524.774C160.677 524.637 160.675 524.492 160.672 524.34M164.62 524.815C165.366 524.833 166.108 524.858 166.843 524.89M164.62 524.815C164.581 525.232 164.564 525.591 164.578 525.871C164.618 526.686 165.543 526.085 166.843 524.89M164.62 524.815C164.749 523.429 165.118 521.406 165.385 519.54M166.843 524.89C168.348 524.955 169.825 525.048 171.255 525.175M166.843 524.89C168.092 523.741 169.687 522.043 171.178 520.522M171.255 525.175C171.459 525.193 171.662 525.212 171.863 525.232M171.255 525.175C171.288 523.909 171.236 522.166 171.178 520.522M171.255 525.175C171.246 525.518 171.231 525.825 171.208 526.086M171.863 525.232C172.736 525.316 173.591 525.413 174.423 525.524M171.863 525.232C171.603 525.549 171.381 525.838 171.208 526.086M171.863 525.232C172.767 524.129 174.13 522.678 175.466 521.356M174.423 525.524C174.664 525.556 174.904 525.589 175.141 525.624M174.423 525.524C174.398 525.667 174.385 525.785 174.385 525.871C174.385 526.128 174.673 525.997 175.141 525.624M174.423 525.524C174.564 524.7 175.069 523.01 175.466 521.356M175.141 525.624C176.01 525.75 176.852 525.892 177.662 526.052M175.141 525.624C175.899 525.019 177.131 523.778 178.376 522.52M177.662 526.052C178.354 526.188 179.023 526.337 179.665 526.5C180.998 531.428 180.22 530.816 179.665 529.894M177.662 526.052C177.745 525.012 178.039 523.745 178.376 522.52M177.662 526.052C177.575 527.141 177.718 527.98 178.282 528.26M165.385 519.54C163.418 521.147 161.502 522.96 160.672 524.34M160.448 519.378C160.547 521.199 160.649 523.036 160.672 524.34M147.247 517.644C145.542 519.282 143.727 521.102 142.159 522.765M171.208 526.086C171.151 526.741 171.045 527.106 170.864 527.003C170.718 526.919 170.864 526.583 171.208 526.086ZM426.349 541.336C427.263 539.11 428.13 536.859 428.895 534.672M108.339 509.486C107.438 510.286 106.591 511.053 105.797 511.789C105.332 512.219 104.886 512.638 104.456 513.047C103.972 513.507 103.51 513.953 103.069 514.386M341.451 571.577C333.656 568.53 332.65 565.135 325.987 565.513C320.656 565.814 276.575 577.122 255.201 582.738M425.944 542.378C436.201 537.048 447.148 536.05 451.339 536.218M436 535.715C440.065 533.871 449.579 530.183 455.111 530.183C462.026 530.183 468.564 531.943 467.684 533.829C466.979 535.338 464.624 537.391 463.534 538.229M428.49 535.715C436.811 528.171 444.424 525.913 447.19 525.727M105.392 512.832C96.4926 507.3 92.0046 505.833 90.8731 505.791M104.052 514.089C99.7006 512.12 89.1128 510.519 81.5691 519.873M200.006 120.683C198.901 111.225 198.939 93.7307 200.006 86.7357C201.073 79.7406 201.766 76.751 203.639 78.2574C203.51 69.396 210.051 51.0286 214.088 47.5081C216.979 51.28 216.351 54.6589 216.351 59.3267C220.295 51.2215 227.038 30.6604 236.342 22.991C237.976 26.8885 241.622 32.4859 241.622 48.1368C244.772 24.9421 260.127 8.15665 262.659 3C267.621 9.29976 279.09 39.3357 279.09 47.5081C279.09 41.4731 279.09 27.3914 281.751 22.991C290.782 32.2949 302.757 54.1395 302.536 58.4086C303.607 53.7946 304.11 49.0169 306.121 43.4848C308.636 46.1251 312.408 52.2859 314.168 59.3267C315.967 66.5232 317.139 71.271 315.425 76.0349C317.926 78.8081 321.083 89.8789 319.329 103.719C318.006 114.151 313.178 122.831 312.126 126.134L311.496 138.313C311.048 146.977 301.595 167.454 294.68 173.866C293.372 170.503 293.458 167.49 293.223 165.233C293.097 164.021 293.557 162.719 294.485 161.93C300.15 157.107 308.385 144.284 308.385 129.609C308.385 123.373 307.29 117.407 307.372 115.816C309.186 109.951 310.174 98.9677 308.636 93.6508C303.948 88.876 299.826 81.4975 297.698 78.0301C293.626 77.2319 280.473 72.2768 279.09 69.6365C276.428 74.0356 271.672 75.2035 266.265 75.2035C266.265 75.2035 260.607 76.035 253.189 74.4142C245.771 72.7935 244.514 72.4025 239.736 68.1277C238.353 71.271 224.649 76.0349 224.649 76.0349L219.436 78.0301C217.833 81.4303 213.713 88.8885 210.051 91.5192C208.302 98.0761 206.905 117.524 207.047 126.134C209.068 148.839 218.33 157.004 222.255 159.478C223.246 160.103 223.917 161.233 223.766 162.395C223.343 165.668 222.503 172.025 222.134 173.866C211.196 167.58 204.696 139.057 203.639 132.708C202.484 125.762 201.649 125.426 200.006 120.683ZM66.2301 527.92C66.733 524.651 65.2243 524.399 64.4699 523.519C63.7155 522.639 62.2068 523.268 62.4583 522.136C62.7097 521.005 65.7272 518.741 67.236 518.741C68.7447 518.741 71.1336 521.885 71.0078 523.519C70.8821 525.154 69.2476 526.788 68.2418 527.04C67.4371 527.241 66.5654 527.71 66.2301 527.92ZM453.35 526.537C453.049 525.128 454.65 522.932 455.488 522.01C454.398 520.46 452.043 517.409 451.339 517.61C450.459 517.861 447.693 520.25 447.693 522.01C447.693 523.418 451.464 525.615 453.35 526.537ZM354.958 242.456L345.217 235.93C344.548 235.482 343.651 235.961 343.651 236.765V249.623C343.651 250.421 344.536 250.902 345.205 250.467L354.946 244.135C355.551 243.742 355.557 242.858 354.958 242.456ZM348.312 254.652L358.053 248.125C358.721 247.678 359.619 248.157 359.619 248.961V261.819C359.619 262.617 358.734 263.097 358.065 262.662L348.324 256.331C347.718 255.937 347.712 255.054 348.312 254.652ZM356.215 267.35L346.474 260.824C345.806 260.376 344.908 260.855 344.908 261.66V274.518C344.908 275.316 345.793 275.796 346.462 275.361L356.203 269.029C356.808 268.636 356.815 267.752 356.215 267.35ZM348.14 280.057L358.412 274.405C359.117 274.017 359.969 274.572 359.899 275.373L358.779 288.183C358.709 288.978 357.786 289.379 357.157 288.887L348.005 281.731C347.436 281.286 347.507 280.405 348.14 280.057ZM355.759 293.751L346.624 286.4C345.997 285.896 345.061 286.295 344.991 287.096L343.87 299.906C343.801 300.701 344.641 301.256 345.345 300.881L355.601 295.423C356.238 295.083 356.321 294.203 355.759 293.751ZM346.239 304.842L356.965 300.107C357.701 299.782 358.502 300.409 358.362 301.201L356.129 313.864C355.991 314.65 355.036 314.969 354.453 314.425L345.959 306.498C345.431 306.005 345.579 305.134 346.239 304.842ZM352.001 318.394L343.541 310.275C342.961 309.718 341.994 310.034 341.854 310.826L339.621 323.489C339.483 324.275 340.271 324.901 341.005 324.589L351.698 320.045C352.362 319.763 352.522 318.894 352.001 318.394ZM342.105 330.475L352.377 324.822C353.082 324.434 353.934 324.99 353.864 325.791L352.744 338.6C352.674 339.395 351.751 339.796 351.122 339.305L341.97 332.148C341.401 331.704 341.472 330.823 342.105 330.475ZM348.467 343.791L339.331 336.441C338.705 335.936 337.769 336.335 337.699 337.137L336.578 349.946C336.509 350.741 337.348 351.296 338.053 350.921L348.309 345.463C348.946 345.124 349.029 344.244 348.467 343.791ZM339.511 356.367L349.252 349.84C349.92 349.393 350.818 349.871 350.818 350.676V363.534C350.818 364.332 349.933 364.812 349.264 364.377L339.523 358.046C338.917 357.652 338.911 356.769 339.511 356.367ZM347.917 369.191L338.176 362.665C337.508 362.217 336.61 362.696 336.61 363.5V376.358C336.61 377.157 337.495 377.637 338.164 377.202L347.905 370.87C348.51 370.477 348.517 369.593 347.917 369.191ZM339.511 382.141L349.252 375.615C349.92 375.167 350.818 375.646 350.818 376.45V389.309C350.818 390.107 349.933 390.587 349.264 390.152L339.523 383.82C338.917 383.427 338.911 382.543 339.511 382.141ZM347.917 394.84L338.176 388.313C337.508 387.866 336.61 388.345 336.61 389.149V402.007C336.61 402.805 337.495 403.286 338.164 402.851L347.905 396.519C348.51 396.126 348.517 395.242 347.917 394.84ZM339.511 407.79L349.252 401.264C349.92 400.816 350.818 401.295 350.818 402.099V414.957C350.818 415.755 349.933 416.236 349.264 415.801L339.523 409.469C338.917 409.076 338.911 408.192 339.511 407.79ZM347.917 420.614L338.176 414.088C337.508 413.64 336.61 414.119 336.61 414.924V427.782C336.61 428.58 337.495 429.06 338.164 428.625L347.905 422.293C348.51 421.9 348.517 421.016 347.917 420.614ZM339.511 433.565L349.252 427.038C349.92 426.59 350.818 427.069 350.818 427.874V440.732C350.818 441.53 349.933 442.01 349.264 441.575L339.523 435.243C338.917 434.85 338.911 433.966 339.511 433.565ZM348.043 446.515L338.302 439.988C337.633 439.54 336.736 440.019 336.736 440.824V453.682C336.736 454.48 337.621 454.96 338.29 454.525L348.031 448.194C348.636 447.8 348.642 446.916 348.043 446.515ZM339.637 459.465L349.378 452.938C350.046 452.491 350.943 452.969 350.943 453.774V466.632C350.943 467.43 350.058 467.91 349.389 467.475L339.648 461.144C339.043 460.75 339.037 459.867 339.637 459.465ZM348.043 472.289L338.302 465.763C337.633 465.315 336.736 465.794 336.736 466.598V479.456C336.736 480.255 337.621 480.735 338.29 480.3L348.031 473.968C348.636 473.575 348.642 472.691 348.043 472.289ZM339.637 485.239L349.378 478.713C350.046 478.265 350.943 478.744 350.943 479.548V492.407C350.943 493.205 350.058 493.685 349.389 493.25L339.648 486.918C339.043 486.525 339.037 485.641 339.637 485.239ZM348.043 497.938L338.302 491.411C337.633 490.964 336.736 491.443 336.736 492.247V505.105C336.736 505.903 337.621 506.383 338.29 505.949L348.031 499.617C348.636 499.224 348.642 498.34 348.043 497.938ZM177.572 262.824L187.313 256.298C187.981 255.85 188.878 256.329 188.878 257.133V269.992C188.878 270.79 187.993 271.27 187.324 270.835L177.583 264.503C176.978 264.11 176.972 263.226 177.572 262.824ZM184.217 275.02L174.476 268.493C173.808 268.046 172.911 268.525 172.911 269.329V282.187C172.911 282.985 173.796 283.466 174.465 283.031L184.206 276.699C184.811 276.306 184.817 275.422 184.217 275.02ZM176.314 287.719L186.055 281.192C186.724 280.744 187.621 281.223 187.621 282.028V294.886C187.621 295.684 186.736 296.164 186.067 295.729L176.326 289.398C175.721 289.004 175.715 288.12 176.314 287.719ZM184.39 300.425L174.117 294.773C173.412 294.385 172.56 294.94 172.63 295.742L173.751 308.551C173.82 309.346 174.744 309.747 175.372 309.256L184.524 302.099C185.093 301.654 185.022 300.773 184.39 300.425ZM176.77 314.119L185.906 306.768C186.532 306.264 187.468 306.663 187.538 307.464L188.659 320.274C188.728 321.069 187.889 321.624 187.184 321.249L176.928 315.791C176.291 315.452 176.208 314.572 176.77 314.119ZM186.29 325.211L175.564 320.475C174.828 320.15 174.027 320.777 174.167 321.569L176.4 334.232C176.538 335.018 177.493 335.338 178.077 334.793L186.57 326.866C187.098 326.374 186.951 325.502 186.29 325.211ZM180.528 338.762L188.988 330.643C189.568 330.086 190.535 330.402 190.675 331.194L192.908 343.857C193.047 344.643 192.258 345.27 191.524 344.957L180.831 340.413C180.167 340.131 180.008 339.262 180.528 338.762ZM190.425 350.843L180.152 345.19C179.447 344.802 178.595 345.358 178.665 346.159L179.786 358.968C179.855 359.763 180.779 360.165 181.407 359.673L190.559 352.516C191.128 352.072 191.057 351.191 190.425 350.843ZM184.063 364.159L193.198 356.809C193.825 356.304 194.76 356.703 194.83 357.505L195.951 370.314C196.021 371.109 195.181 371.664 194.477 371.29L184.221 365.831C183.584 365.492 183.5 364.612 184.063 364.159ZM193.018 376.735L183.277 370.208C182.609 369.761 181.712 370.24 181.712 371.044V383.902C181.712 384.7 182.597 385.18 183.266 384.746L193.007 378.414C193.612 378.021 193.618 377.137 193.018 376.735ZM184.612 389.559L194.353 383.033C195.022 382.585 195.919 383.064 195.919 383.868V396.727C195.919 397.525 195.034 398.005 194.365 397.57L184.624 391.238C184.019 390.845 184.013 389.961 184.612 389.559ZM193.018 402.509L183.277 395.983C182.609 395.535 181.712 396.014 181.712 396.819V409.677C181.712 410.475 182.597 410.955 183.266 410.52L193.007 404.188C193.612 403.795 193.618 402.911 193.018 402.509ZM184.612 415.208L194.353 408.682C195.022 408.234 195.919 408.713 195.919 409.517V422.375C195.919 423.173 195.034 423.654 194.365 423.219L184.624 416.887C184.019 416.494 184.013 415.61 184.612 415.208ZM193.018 428.158L183.277 421.632C182.609 421.184 181.712 421.663 181.712 422.467V435.325C181.712 436.124 182.597 436.604 183.266 436.169L193.007 429.837C193.612 429.444 193.618 428.56 193.018 428.158ZM184.612 440.983L194.353 434.456C195.022 434.008 195.919 434.487 195.919 435.292V448.15C195.919 448.948 195.034 449.428 194.365 448.993L184.624 442.662C184.019 442.268 184.013 441.384 184.612 440.983ZM193.018 453.933L183.277 447.406C182.609 446.958 181.712 447.437 181.712 448.242V461.1C181.712 461.898 182.597 462.378 183.266 461.943L193.007 455.612C193.612 455.218 193.618 454.334 193.018 453.933ZM184.487 466.883L194.228 460.356C194.896 459.909 195.793 460.388 195.793 461.192V474.05C195.793 474.848 194.909 475.328 194.239 474.893L184.498 468.562C183.893 468.168 183.887 467.285 184.487 466.883ZM192.893 479.833L183.152 473.306C182.483 472.859 181.586 473.338 181.586 474.142V487C181.586 487.798 182.471 488.279 183.14 487.844L192.881 481.512C193.486 481.119 193.492 480.235 192.893 479.833ZM183.429 235.142L194.155 230.406C194.891 230.081 195.691 230.709 195.552 231.501L193.319 244.164C193.18 244.95 192.226 245.269 191.642 244.724L183.149 236.797C182.621 236.305 182.768 235.433 183.429 235.142ZM189.19 248.693L180.731 240.575C180.15 240.018 179.183 240.333 179.044 241.126L176.811 253.788C176.672 254.574 177.46 255.201 178.195 254.889L188.887 250.345C189.552 250.063 189.711 249.193 189.19 248.693Z" />
</svg>